<svg xmlns="http://www.w3.org/2000/svg" viewBox="0 0 420 240" role="img" aria-label="Castle wedding venue">
  <defs>
    <linearGradient id="tower" x1="0" x2="0" y1="0" y2="1">
      <stop offset="0" stop-color="#dcebf6"/>
      <stop offset="1" stop-color="#88acc8"/>
    </linearGradient>
    <linearGradient id="roof" x1="0" x2="1" y1="0" y2="1">
      <stop offset="0" stop-color="#5294c1"/>
      <stop offset="1" stop-color="#334e68"/>
    </linearGradient>
  </defs>
  <rect width="420" height="240" fill="none"/>
  <g opacity="0.95">
    <path d="M38 209H382" stroke="#334e68" stroke-width="2" stroke-linecap="round" opacity="0.25"/>
    <path d="M86 204V112h46v92H86Z" fill="url(#tower)" stroke="#334e68" stroke-width="2" opacity="0.9"/>
    <path d="M288 204V112h46v92h-46Z" fill="url(#tower)" stroke="#334e68" stroke-width="2" opacity="0.9"/>
    <path d="M76 112l33-54 33 54H76Z" fill="url(#roof)" opacity="0.88"/>
    <path d="M278 112l33-54 33 54h-66Z" fill="url(#roof)" opacity="0.88"/>
    <path d="M143 204V93h134v111H143Z" fill="url(#tower)" stroke="#334e68" stroke-width="2"/>
    <path d="M131 94l79-68 79 68H131Z" fill="url(#roof)" opacity="0.9"/>
    <path d="M166 204v-48c0-23 18-42 44-42s44 19 44 42v48h-88Z" fill="#334e68" opacity="0.35"/>
    <path d="M181 204v-47c0-15 12-28 29-28s29 13 29 28v47h-58Z" fill="#f4f8fc" opacity="0.62"/>
    <g fill="#334e68" opacity="0.62">
      <rect x="100" y="134" width="16" height="24" rx="8"/>
      <rect x="304" y="134" width="16" height="24" rx="8"/>
      <rect x="162" y="116" width="18" height="28" rx="9"/>
      <rect x="199" y="103" width="22" height="34" rx="11"/>
      <rect x="240" y="116" width="18" height="28" rx="9"/>
    </g>
    <g stroke="#5294c1" stroke-linecap="round" opacity="0.45">
      <path d="M58 214c22-16 46-16 70 0"/>
      <path d="M146 218c40-20 88-20 128 0"/>
      <path d="M292 214c22-16 46-16 70 0"/>
    </g>
  </g>
</svg>
